<svg xmlns="http://www.w3.org/2000/svg" width="16" height="16" viewBox="0 0 16 16"><path d="m1.476 11.67-.466.745a.492.492 0 0 0 .186.652l3.028 1.863a.466.466 0 0 0 .653-.14l.442-.745c1.212-1.957 2.423-1.724 4.59-.699l3.004 1.421a.466.466 0 0 0 .63-.21v-.023l1.467-3.284c.093-.233 0-.513-.233-.606l-3.028-1.42c-4.124-1.98-7.594-1.841-10.273 2.445z"/><path d="m14.505 4.308.465-.745a.466.466 0 0 0-.163-.653L11.78 1.047a.498.498 0 0 0-.652.186l-.443.746c-1.211 1.956-2.422 1.723-4.589.699L3.067 1.257c-.233-.117-.513 0-.629.233L.994 4.727c-.093.233 0 .513.233.606l3.028 1.421c4.123 1.957 7.594 1.84 10.25-2.446z"/></svg>