<svg xmlns="http://www.w3.org/2000/svg" width="16" height="16" viewBox="0 0 16 16"><path fill="currentColor" d="M13.3 1c1 0 1.8.8 1.8 1.8v10.5c0 1-.8 1.8-1.8 1.8H2.8c-1 0-1.8-.8-1.8-1.8V2.8C1 1.8 1.8 1 2.8 1h10.5zM2.8 2.5c-.1 0-.3.1-.3.3v10.5c0 .1.1.3.3.3h10.5c.1 0 .3-.1.3-.3V2.8c0-.1-.1-.3-.3-.3H2.8zM6.1 7H4.9c-.5 0-.9-.4-.9-.9V4.9c0-.5.4-.9.9-.9h1.3c.4 0 .8.4.8.9v1.3c0 .4-.4.8-.9.8zm5 0H9.9c-.5 0-.9-.4-.9-.9V4.9c0-.5.4-.9.9-.9h1.3c.4 0 .8.4.8.9v1.3c0 .4-.4.8-.9.8zm-5 5H4.9c-.5 0-.9-.4-.9-.9V9.9c0-.5.4-.9.9-.9h1.3c.4 0 .8.4.8.9v1.3c0 .4-.4.8-.9.8zm5 0H9.9c-.5 0-.9-.4-.9-.9V9.9c0-.5.4-.9.9-.9h1.3c.4 0 .8.4.8.9v1.3c0 .4-.4.8-.9.8z"/></svg>