<svg xmlns="http://www.w3.org/2000/svg" width="16" height="16" viewBox="0 0 16 16">
<path fill="currentColor" d="M13.3,1c1,0,1.8,0.8,1.8,1.8v10.5c0,1-0.8,1.8-1.8,1.8H2.8c-1,0-1.8-0.8-1.8-1.8V2.8C1,1.8,1.8,1,2.8,1H13.3z M2.8,2.5
	c-0.1,0-0.3,0.1-0.3,0.3v10.5c0,0.1,0.1,0.3,0.3,0.3h10.5c0.1,0,0.3-0.1,0.3-0.3V2.8c0-0.1-0.1-0.3-0.3-0.3H2.8z M6.1,7H4.9
	C4.4,7,4,6.6,4,6.1V4.9C4,4.4,4.4,4,4.9,4h1.3C6.6,4,7,4.4,7,4.9v1.3C7,6.6,6.6,7,6.1,7z M11.1,7H9.9C9.4,7,9,6.6,9,6.1V4.9
	C9,4.4,9.4,4,9.9,4h1.3C11.6,4,12,4.4,12,4.9v1.3C12,6.6,11.6,7,11.1,7z M6.1,12H4.9C4.4,12,4,11.6,4,11.1V9.9C4,9.4,4.4,9,4.9,9
	h1.3C6.6,9,7,9.4,7,9.9v1.3C7,11.6,6.6,12,6.1,12z M11.1,12H9.9C9.4,12,9,11.6,9,11.1V9.9C9,9.4,9.4,9,9.9,9h1.3
	C11.6,9,12,9.4,12,9.9v1.3C12,11.6,11.6,12,11.1,12z"/>
</svg>
