<svg xmlns="http://www.w3.org/2000/svg" width="48" height="48" viewBox="0 0 48 48"><path fill="currentColor" d="M25 30.4v.6c0 .6-.4 1-1 1s-1-.4-1-1v-.6c0-.6.4-1 1-1s1 .5 1 1zm1.6-13.8c-1.6-.8-3.6-.8-5.2-.2-1.6.6-3 2-3 4 0 .6.4 1 1 1s1-.4 1-1c0-.9.6-1.7 1.7-2.1 1.1-.4 2.5-.4 3.6.1 1.2.6 1.8 1.5 1.9 2.5.1.9-.2 1.9-1.1 2.6l-3.4 2c-.5.3-.6.9-.4 1.4.3.5.9.6 1.4.4l3.4-2c1.5-1.2 2.2-2.9 1.9-4.5 0-1.9-1.1-3.4-2.8-4.2zM38 24c0 7.7-6.3 14-14 14s-14-6.3-14-14 6.3-14 14-14 14 6.3 14 14zm-2 0c0-6.6-5.4-12-12-12s-12 5.4-12 12 5.4 12 12 12 12-5.4 12-12z"/></svg>