<svg xmlns="http://www.w3.org/2000/svg" xml:space="preserve" style="enable-background:new 0 0 830 123" viewBox="0 0 830 123"><path d="m233.45 25.22-5.61 34.43-1.87 15.73-1.87-15.73-5.17-34.43h-22L191.65 102h17.05l.99-36.08-.11-22.11 2.97 22.11 6.16 36.08h14.08l5.94-36.08 2.97-21.78v21.78l.66 36.08h17.71l-5.39-76.78zM312.363 42.16c-4.253-1.76-9.24-2.64-14.96-2.64-5.793 0-10.89.843-15.29 2.53-4.327 1.613-7.773 3.96-10.34 7.04s-4.033 6.783-4.4 11.11h16.61c.367-2.713 1.65-4.803 3.85-6.27 2.273-1.54 5.207-2.31 8.8-2.31 3.74 0 6.673.843 8.8 2.53 2.127 1.613 3.19 3.85 3.19 6.71v4.18h-11.88c-8.58 0-15.327 1.76-20.24 5.28-4.84 3.447-7.26 8.323-7.26 14.63 0 3.52.843 6.673 2.53 9.46 1.687 2.787 4.07 4.987 7.15 6.6 3.08 1.54 6.637 2.31 10.67 2.31 5.207 0 9.68-.917 13.42-2.75 2.32-1.16 4.268-2.72 5.855-4.666l.305 6.096h16.5V61.96c0-4.84-1.173-8.91-3.52-12.21-2.273-3.373-5.537-5.903-9.79-7.59zm-9.46 45.1c-2.64 1.687-5.683 2.53-9.13 2.53-2.493 0-4.437-.587-5.83-1.76-1.32-1.173-1.98-2.567-1.98-4.18 0-2.273.917-3.96 2.75-5.06 1.907-1.173 4.437-1.76 7.59-1.76l12.32-.097v4.715c-1.586 2.29-3.49 4.165-5.72 5.612zM376.536 39.52c-3.3 0-6.343.55-9.13 1.65-2.713 1.1-5.207 2.75-7.48 4.95-.641.6-1.264 1.256-1.877 1.943l-.433-7.223h-16.5V102h17.16V63.414c1.773-2.768 3.605-4.873 5.5-6.294 2.933-2.2 6.05-3.3 9.35-3.3 2.933 0 5.133.88 6.6 2.64 1.467 1.687 2.2 3.923 2.2 6.71v8.25h17.16v-8.25c0-7.773-2.127-13.64-6.38-17.6-4.253-4.033-9.643-6.05-16.17-6.05zM468.539 40.84h-21.78l-9.68 10.12-11.66 14.19 1.1-18.37V20.6h-17.16V102h17.16V82.64l7.993-7.951L449.619 102h19.91l-22.651-39.612zM504.662 41.72c2.42-1.98 5.17-2.97 8.25-2.97 3.3 0 5.903 1.173 7.81 3.52 1.98 2.347 3.117 5.243 3.41 8.69h19.91c-.293-5.793-1.907-10.707-4.84-14.74-2.933-4.033-6.673-7.077-11.22-9.13-4.473-2.127-9.35-3.19-14.63-3.19-7.26 0-13.53 1.65-18.81 4.95-5.207 3.3-9.203 7.957-11.99 13.97-2.787 5.94-4.18 12.87-4.18 20.79s1.393 14.85 4.18 20.79 6.673 10.597 11.66 13.97c5.06 3.3 11 4.95 17.82 4.95 7.553 0 13.933-1.283 19.14-3.85 5.28-2.567 9.57-6.087 12.87-10.56V60.64h-27.5l-.55 15.07 10.23-.55v8.69c-1.76 1.54-3.593 2.713-5.5 3.52-1.907.733-4.217 1.1-6.93 1.1-3.3 0-6.233-.953-8.8-2.86-2.493-1.98-4.437-4.803-5.83-8.47-1.393-3.74-2.09-8.25-2.09-13.53 0-5.353.66-9.863 1.98-13.53 1.393-3.667 3.263-6.453 5.61-8.36zM594.135 77.997c-2.275 3.659-4.476 6.354-6.6 8.053-2.493 1.98-5.243 2.97-8.25 2.97-2.64 0-4.767-.953-6.38-2.86-1.613-1.907-2.42-4.437-2.42-7.59V40.84h-17.16v38.83c0 4.767.88 8.91 2.64 12.43 1.833 3.52 4.4 6.27 7.7 8.25 3.373 1.98 7.406 2.97 12.1 2.97 4.106 0 8.14-.99 12.1-2.97 2.37-1.23 4.526-2.955 6.476-5.157l.344 6.807h16.61V40.84h-17.16v37.157zM645.768 16.64h18.26V32.7h-18.26zM663.588 40.84H634.328V54.7h12.1v33.44h-19.8V102H683.608V88.14h-20.02zM739.971 46.67c-2.054-2.2-4.62-3.923-7.7-5.17-3.08-1.32-6.38-1.98-9.9-1.98-5.28 0-9.974 1.43-14.08 4.29-4.107 2.787-7.334 6.6-9.68 11.44-2.347 4.84-3.52 10.23-3.52 16.17 0 5.867 1.173 11.22 3.52 16.06 2.346 4.84 5.573 8.69 9.68 11.55 4.106 2.86 8.8 4.29 14.08 4.29 3.666 0 7.04-.66 10.12-1.98 3.08-1.393 5.646-3.227 7.7-5.5l.33 6.16h16.5V20.6h-17.05v26.07zm0 32.01c-1.027 3.153-2.714 5.72-5.06 7.7-2.347 1.907-5.06 2.86-8.14 2.86-2.787 0-5.28-.807-7.48-2.42s-3.924-3.74-5.17-6.38c-1.247-2.713-1.87-5.72-1.87-9.02 0-3.373.623-6.38 1.87-9.02 1.246-2.713 2.97-4.84 5.17-6.38 2.2-1.613 4.693-2.42 7.48-2.42 3.08 0 5.793.953 8.14 2.86 2.346 1.833 4.033 4.363 5.06 7.59v14.63zM822.954 48.76c-4.84-6.16-12.65-9.24-23.43-9.24-6.894 0-12.797 1.283-17.71 3.85-4.84 2.493-8.544 6.123-11.11 10.89-2.567 4.767-3.85 10.487-3.85 17.16 0 6.6 1.283 12.283 3.85 17.05 2.566 4.767 6.196 8.433 10.89 11 4.766 2.567 10.45 3.85 17.05 3.85 8.653 0 15.656-2.017 21.01-6.05 5.426-4.107 8.506-9.643 9.24-16.61h-17.16c-.514 2.567-1.98 4.693-4.4 6.38-2.347 1.687-5.244 2.53-8.69 2.53-3.227 0-5.94-.77-8.14-2.31-2.127-1.613-3.74-3.74-4.84-6.38-.891-2.138-1.402-4.454-1.572-6.93h45.022c.806-10.707-1.247-19.103-6.16-25.19zm-37.495 13.42c.586-1.682 1.35-3.15 2.295-4.4 2.493-3.3 6.38-4.95 11.66-4.95 3.373 0 6.196.88 8.47 2.64 2.273 1.687 3.52 3.923 3.74 6.71h-26.166zM26.288 4.05c-4.517 2.259-8.11 5.544-10.78 9.856-2.566 4.312-3.85 9.548-3.85 15.708v14.322c0 2.875-1.026 5.441-3.08 7.7-2.053 2.156-4.774 3.388-8.162 3.696v12.936c3.388.308 6.109 1.489 8.162 3.542 2.054 1.95 3.08 4.466 3.08 7.546v14.63c0 6.263 1.284 11.55 3.85 15.862 2.567 4.312 6.109 7.546 10.626 9.702 4.62 2.259 9.856 3.388 15.708 3.388h6.776v-14.322h-4.62c-4.21 0-7.648-1.335-10.318-4.004-2.566-2.772-3.85-6.725-3.85-11.858V81.358c0-5.852-1.591-10.626-4.774-14.322-1.822-2.186-3.993-3.966-6.497-5.362a23.282 23.282 0 0 0 6.497-5.11c3.183-3.696 4.774-8.572 4.774-14.63V30.846c0-4.928 1.284-8.778 3.85-11.55 2.67-2.875 6.109-4.312 10.318-4.312h4.62V.508h-6.776c-5.75 0-10.934 1.18-15.554 3.542zM138.922 43.936V29.614c0-6.16-1.334-11.396-4.004-15.708-2.566-4.312-6.108-7.597-10.626-9.856C119.775 1.69 114.59.508 108.738.508h-6.776v14.476h4.62c4.21 0 7.598 1.437 10.164 4.312 2.67 2.772 4.004 6.622 4.004 11.55v11.088c0 6.057 1.592 10.934 4.774 14.63a24.667 24.667 0 0 0 6.571 5.11 24.213 24.213 0 0 0-6.57 5.362c-3.183 3.696-4.775 8.47-4.775 14.322v11.396c0 5.133-1.334 9.086-4.004 11.858-2.566 2.669-5.954 4.004-10.164 4.004h-4.62v14.322h6.776c5.955 0 11.191-1.129 15.708-3.388 4.518-2.156 8.06-5.39 10.626-9.702 2.567-4.312 3.85-9.599 3.85-15.862v-14.63c0-3.08 1.027-5.595 3.08-7.546 2.156-2.053 4.877-3.234 8.162-3.542V55.332c-3.285-.308-6.006-1.54-8.162-3.696-2.053-2.259-3.08-4.825-3.08-7.7z"/></svg>